<svg id="headphon" xmlns="http://www.w3.org/2000/svg" viewBox="0 0 222.5 230.7">
  <defs>
    <style>
      .cls-1 {
        fill: #faac18;
      }
    </style>
  </defs>
  <path class="cls-1" d="M24.8,230.7A24.8,24.8,0,0,1,0,205.9V24.8A24.8,24.8,0,0,1,24.8,0H197.7a24.8,24.8,0,0,1,24.8,24.8V205.9a24.8,24.8,0,0,1-24.8,24.8Zm192.7-24.8V24.8A19.85,19.85,0,0,0,197.7,5H24.8A19.78,19.78,0,0,0,5,24.8H5V205.9a19.85,19.85,0,0,0,19.8,19.8H197.7a19.85,19.85,0,0,0,19.8-19.8Zm-184.4-70c-2.9,13.3,2.2,25.8,11.5,28.7l10.9-50C45.8,113.3,36,122.5,33.1,135.9Zm144.8,5.2-10.9,50c9.6,1.2,19.4-8,22.3-21.3s-2.2-25.8-11.4-28.7Zm3-4.4,1.6-7.2c.4-1.9-.4-3.7-1.9-4l-.6-.1,2.3-10.6A63.61,63.61,0,0,0,174,67.2,61,61,0,0,0,89.9,47.8a14.8,14.8,0,0,1-1.3.8A63.73,63.73,0,0,0,61.2,88.5L59,99.1l-.6-.1c-1.5-.3-3,1-3.4,2.8L53.4,109c-.4,1.9.4,3.7,1.9,4l1.2.3a4.92,4.92,0,0,1,5.6-3.7l7.1,1.5,1.3-6c.4-1.9-.4-3.7-1.9-4l-1.9-.4L69,90.2A54.83,54.83,0,0,1,92.5,56a53.6,53.6,0,0,1,74.3,15.4l.6.9a54.23,54.23,0,0,1,7.2,40.8l-2.3,10.6-1.9-.4c-1.4-.3-3,1-3.4,2.8l-1.3,6,7.8,1.7a5,5,0,0,1,3.6,5.7l.5.1c1.3.3,2.8-1,3.3-2.9ZM58,114.1,47.1,163.9a3.36,3.36,0,0,0,2.3,4.1l9.6,2.1a3.29,3.29,0,0,0,3.8-2.7l10.8-49.8a3.36,3.36,0,0,0-2.3-4.1l-9.6-2.1A3.25,3.25,0,0,0,58,114.1Zm115.1,21.4-9.6-2.1a3.29,3.29,0,0,0-3.8,2.7L148.8,186a3.36,3.36,0,0,0,2.3,4.1l9.6,2.1a3.29,3.29,0,0,0,3.8-2.7l10.8-49.8a3.26,3.26,0,0,0-2.2-4.2Z"/>
</svg>
