<?xml version="1.0" encoding="UTF-8"?>
<svg id="Layer_1" data-name="Layer 1" xmlns="http://www.w3.org/2000/svg" viewBox="0 0 222.46 230.69">
  <defs>
    <style>
      .cls-1 {
        fill: #e7d7a7;
      }
    </style>
  </defs>
  <path class="cls-1" d="M24.78,230.69c-13.66,0-24.78-11.11-24.78-24.78V24.78C0,11.11,11.11,0,24.78,0H197.68c13.66,0,24.77,11.11,24.77,24.78V205.92c0,13.66-11.11,24.78-24.77,24.78H24.78Zm192.68-24.78V24.78c0-10.92-8.85-19.78-19.78-19.78H24.78C13.85,5,5,13.85,5,24.78V205.92c0,10.92,8.85,19.78,19.78,19.78H197.68c10.92,0,19.78-8.85,19.78-19.78Zm-79.27-45.03c-2.28,1.49-4.66,2.74-7.11,3.75l2.18,13.12c.36,1.27,.56,2.23,.79,3.4,.21,1.21,.39,2.46,.48,3.73,.2,2.56,.17,5.26-.53,8.14-.67,2.86-2.28,5.98-4.81,8.07-1.25,1.03-2.63,1.77-3.99,2.3-.67,.23-1.37,.48-2.03,.6-.43,.09-.45,.13-1.22,.24l-.73,.09c-.71,.13-2.9,.23-3.97,.07-1.32-.1-2.64-.35-3.95-.77-2.6-.81-5.2-2.23-7.4-4.53-2.2-2.25-3.83-5.52-4.28-8.78-.25-1.6-.28-3.26-.08-4.71,.12-1.54,.52-2.86,.88-4.24,.78-3.02,3.72-4.74,6.57-3.82,2.78,.89,4.44,3.96,3.79,6.92l-.2,.9c-.14,.65-.39,1.31-.41,1.89-.12,.59-.08,1.11-.02,1.56,.12,.91,.43,1.61,1.07,2.33,.64,.68,1.65,1.34,2.82,1.73,.59,.2,1.23,.35,1.86,.4,.35,.04,.63,.06,.84,.05l.36,.03,.71-.08,.63-.07s.27-.06,.31-.07c.3-.05,.54-.16,.8-.23,.46-.19,.84-.41,1.13-.64,.53-.5,.96-1.15,1.26-2.33,.27-1.17,.35-2.72,.21-4.37-.06-.83-.18-1.68-.35-2.53-.14-.78-.38-1.8-.55-2.34-.07-.23-.12-.47-.18-.69l-2.1-12.58c-3.47,.52-6.99,.67-10.5,.49-10.6-.71-21.78-5.43-29.6-14.52-3.87-4.42-6.94-9.76-8.83-15.11-2.2-5.87-2.92-12.29-2.11-18.57,.82-6.27,3.2-11.88,6.05-16.59,2.86-4.75,6.2-8.76,9.62-12.43,5.23-5.62,10.89-10.48,16.22-15.16l-.6-2.79c-1.08-4.9-1.99-10.06-2.27-15.58-.27-5.59,.2-11.29,2.35-17.22,.51-1.52,.97-2.33,1.45-3.52,.68-1.61,1.57-3.13,2.75-4.56,2.3-2.84,5.79-5,9.56-5.5,7.67-1.16,14.96,4.16,17.88,10.75,3.04,6.66,3.05,13.57,1.26,19.72-1.85,6.08-4.92,10.69-8.07,14.83-3.18,4.14-6.53,7.72-10.1,11.23-.35,.35-.72,.69-1.08,1.04,.06,.37,.13,.74,.2,1.12l2.86,14.35c1.03-.1,2.1-.15,3.26-.09,2.95,.16,5.64,.79,8.25,1.66,.9,.31,1.78,.66,2.67,1.04h.02c2.04,.88,4.02,1.94,5.91,3.2,.08,.06,.17,.11,.25,.17,.88,.6,1.74,1.24,2.58,1.92,.14,.11,.27,.23,.41,.35,.84,.71,1.66,1.44,2.45,2.24,.04,.04,.08,.09,.13,.14h0c2.22,2.25,4.15,4.99,5.64,8.01h0c.91,1.86,1.66,3.8,2.19,5.81h0c.21,.81,.39,1.62,.53,2.43,1.18,6.27,.36,12.41-1.16,17.83-.71,2.62-2.43,6.21-4.19,8.57-1.79,2.52-3.91,4.59-6.14,6.35-.85,.66-1.73,1.27-2.61,1.85h0Zm-27.56-103.92c.08,2.99,.45,6.16,.98,9.41,4.4-4.61,8.24-9.56,9.85-14.31,1.06-3.05,.95-6.7-.06-9.01-.96-2.38-2.94-3.55-4.49-3.41-.79,.06-1.51,.39-2.22,1.17-.35,.36-.71,.89-.98,1.49-.44,1.02-1.16,2.32-1.39,3.1-1.21,3.12-1.86,7.35-1.69,11.56Zm7.28,95.59l-7.53-36.46-.3-1.43c-1.37,.85-2.63,1.83-3.74,2.91-5.43,5.2-4.55,12.17,1.56,13.2h.05c2.95,.5,5.02,3.45,4.63,6.59-.39,3.16-3.09,5.3-6.03,4.81-.2-.04-.44-.08-.63-.16-3.41-1.02-5.98-2.59-8.56-5.11-2.46-2.54-4.28-6.19-4.71-9.71l-.17-1.3-.04-1.38v-.92c0-.37,.06-.97,.11-1.45,.23-2.17,.69-3.6,1.29-5.17,1.21-3.06,2.98-5.58,4.94-7.69,2.64-2.74,5.58-4.94,8.79-6.59l-2.07-9.92c-3.28,3.03-6.44,6.03-9.36,9.2-5.9,6.37-10.65,13.44-11.43,20.37-.45,3.4,.07,7.06,1.23,10.41,1.33,3.92,3.24,7.19,5.65,10.07,4.78,5.73,11.96,9.05,19.59,9.74,2.21,.23,4.47,.22,6.73,.01Zm14.88-5.33c1.44-1.05,2.75-2.24,3.72-3.55,1.06-1.45,1.57-2.16,2.27-4.16,.22-.69,.41-1.38,.58-2.06,.03-.12,.06-.24,.09-.37,.17-.7,.31-1.4,.43-2.1v-.02c.24-1.5,.35-2.97,.31-4.39-.03-.74-.08-1.48-.2-2.19-.06-.49-.15-.98-.26-1.46h0c-.16-.7-.37-1.39-.63-2.07v-.03c-.26-.65-.56-1.29-.89-1.91-.03-.05-.05-.1-.08-.15-1.05-1.9-2.47-3.66-4.17-5.19-.02-.02-.04-.04-.06-.05-1.73-1.55-3.73-2.87-5.91-3.9-.62-.29-1.26-.57-1.91-.82-1.77-.67-3.61-1.14-5.24-1.28-.14-.02-.31-.03-.45-.05l.5,2.54,7.22,35.88c1.67-.75,3.24-1.65,4.68-2.68Z"/>
</svg>