<?xml version="1.0" encoding="UTF-8"?>
<svg id="Layer_1" data-name="Layer 1" xmlns="http://www.w3.org/2000/svg" viewBox="0 0 222.46 230.69">
  <defs>
    <style>
      .cls-1 {
        fill: #e7d7a7;
      }
    </style>
  </defs>
  <path class="cls-1" d="M24.78,230.69c-13.66,0-24.78-11.11-24.78-24.78V24.78C0,11.11,11.11,0,24.78,0H197.68c13.66,0,24.77,11.11,24.77,24.78V205.92c0,13.66-11.11,24.78-24.77,24.78H24.78Zm192.68-24.78V24.78c0-10.92-8.85-19.78-19.78-19.78H24.78C13.85,5,5,13.85,5,24.78V205.92c0,10.92,8.85,19.78,19.78,19.78H197.68c10.92,0,19.78-8.85,19.78-19.78Zm-19.5-90.57c0,47.9-38.83,86.72-86.72,86.72S24.5,163.24,24.5,115.35,63.33,28.62,111.23,28.62s86.72,38.83,86.72,86.72Zm-154.3,0c0-8.23,1.48-16.12,4.19-23.43h-3.82c-2.57,7.34-3.98,15.22-3.98,23.43s1.41,16.09,3.98,23.43h3.82c-2.71-7.3-4.19-15.19-4.19-23.43Zm11.98,0c0-8.37,1.87-16.3,5.19-23.43h-3.25c-3.15,7.18-4.9,15.1-4.9,23.43s1.76,16.25,4.9,23.43h3.25c-3.32-7.12-5.19-15.06-5.19-23.43Zm89.17,0c0-18.54-15.03-33.57-33.57-33.57s-33.57,15.03-33.57,33.57,15.03,33.57,33.57,33.57,33.57-15.03,33.57-33.57Zm25,0c0-8.33-1.76-16.25-4.9-23.43h-3.25c3.32,7.12,5.19,15.06,5.19,23.43s-1.87,16.3-5.19,23.43h3.25c3.15-7.18,4.9-15.1,4.9-23.43Zm8.63,23.43c2.57-7.34,3.98-15.22,3.98-23.43s-1.41-16.09-3.98-23.43h-3.82c2.71,7.3,4.19,15.19,4.19,23.43s-1.48,16.12-4.19,23.43h3.82Zm-67.2-34.45c-6.09,0-11.02,4.94-11.02,11.02s4.93,11.02,11.02,11.02,11.02-4.94,11.02-11.02-4.93-11.02-11.02-11.02Z"/>
</svg>