<?xml version="1.0" encoding="UTF-8"?>
<svg id="Layer_1" data-name="Layer 1" xmlns="http://www.w3.org/2000/svg" viewBox="0 0 222.46 230.69">
  <defs>
    <style>
      .cls-1 {
        fill: #e7d7a7;
      }
    </style>
  </defs>
  <path class="cls-1" d="M24.78,230.69c-13.66,0-24.78-11.11-24.78-24.78V24.78C0,11.11,11.11,0,24.78,0H197.68c13.66,0,24.78,11.11,24.78,24.78V205.92c0,13.66-11.11,24.78-24.78,24.78H24.78Zm192.68-24.78V24.78c0-10.92-8.85-19.78-19.78-19.78H24.78C13.85,5,5,13.85,5,24.78V205.92c0,10.92,8.85,19.78,19.78,19.78H197.68c10.92,0,19.78-8.85,19.78-19.78Zm-108.93-40.83c7.21-8.61,14.95-8.87,20.02-12.76,15.11-11.59-6.27-7.15-12.16-11.94-3.56-2.9-3.45-8.3,3.29-16.35,.5-.59,.91-1.18,1.25-1.77l49.06-61.12h0c.83-.99,4.22-2.67,7.83-2.65,2.22,.01,5.86-1.12,7.02-2.79,4.49-6.48,9.31-11.12,12.87-13.97,7.35-5.89,8.88-11.42-2.77-5.58l-3.21,1.61-.45-.87c.36-.27,.62-.58,.63-.87l-.59-1.16c-.9-.88-3.01,.16-2.82,1.41l.6,1.16c.27,.18,.74,.14,1.22-.03l.44,.85-3.54,1.77-.45-.87c.36-.27,.62-.58,.63-.87l-.6-1.16c-.9-.88-3.01,.16-2.82,1.41l.6,1.16c.27,.18,.74,.14,1.22-.03l.44,.85-3.54,1.77-.45-.87c.36-.27,.62-.58,.63-.87l-.59-1.16c-.9-.88-3.01,.16-2.82,1.41l.59,1.16c.27,.18,.74,.14,1.22-.03l.44,.85-3.54,1.77-.45-.87c.36-.27,.62-.58,.63-.87l-.59-1.16c-.9-.88-3.01,.16-2.82,1.41l.6,1.16c.27,.18,.74,.14,1.22-.03l.44,.85-3.54,1.77-.45-.87c.36-.27,.62-.58,.63-.87l-.6-1.16c-.9-.88-3.01,.16-2.82,1.41l.6,1.16c.26,.18,.74,.14,1.22-.03l.44,.85-3.54,1.77-.45-.87c.36-.27,.62-.58,.63-.87l-.59-1.16c-.9-.88-3.01,.16-2.82,1.41l.6,1.16c.26,.18,.74,.14,1.22-.03l.44,.85-1.18,.59c-1.09,.55-2.03,.4-2.25,3.21-.08,.99-.28,2.09-.79,2.7l-51.88,59.38c-.08,.08-.17,.16-.25,.24-21.23,22.34-.53-37.79-23.14-8.12-5.71,7.5-5.01,21.01-12.54,26.12-4.14,2.81-16.92,9.46-33.92,20.08-18.43,11.51-35.77,33.97-10.76,31.24,49.97-5.46,55.13,20.78,65.12,8.86,9.17-10.95,5.09-20.6,11.95-28.79Z"/>
</svg>