<?xml version="1.0" encoding="UTF-8"?>
<svg id="Layer_1" data-name="Layer 1" xmlns="http://www.w3.org/2000/svg" viewBox="0 0 222.46 230.69">
  <defs>
    <style>
      .cls-1 {
        fill: #e7d7a7;
      }
    </style>
  </defs>
  <path class="cls-1" d="M24.78,230.69c-13.66,0-24.78-11.11-24.78-24.78V24.78C0,11.11,11.11,0,24.78,0H197.68c13.66,0,24.77,11.11,24.77,24.78V205.92c0,13.66-11.11,24.78-24.77,24.78H24.78Zm192.68-24.78V24.78c0-10.92-8.85-19.78-19.78-19.78H24.78C13.85,5,5,13.85,5,24.78V205.92c0,10.92,8.85,19.78,19.78,19.78H197.68c10.92,0,19.78-8.85,19.78-19.78ZM33.13,135.86c-2.89,13.33,2.22,25.8,11.46,28.68l10.86-50.02c-9.6-1.21-19.43,8.02-22.32,21.34Zm144.74,5.25l-10.87,50.01c9.6,1.21,19.43-8.01,22.32-21.34,2.89-13.33-2.21-25.8-11.45-28.68Zm2.96-4.37l1.57-7.24c.41-1.88-.44-3.66-1.9-3.98l-.65-.14,2.31-10.64c3.73-17.15,.23-34.15-8.31-47.63-8.54-13.5-22.12-23.6-38.7-27.2-16.58-3.6-33.13-.05-46.5,8.7-13.37,8.73-23.61,22.75-27.32,39.89l-2.31,10.64-.65-.14c-1.45-.32-2.97,.95-3.38,2.83l-1.57,7.24c-.41,1.88,.44,3.66,1.9,3.98l1.23,.27c.77-2.57,3.18-4.21,5.58-3.69l7.07,1.54,1.29-5.96c.41-1.88-.44-3.66-1.9-3.98l-1.9-.41,2.31-10.64c3.17-14.58,11.84-26.54,23.47-34.16,11.63-7.6,26.16-10.77,40.83-7.58,14.67,3.19,26.58,12.1,34,23.84,7.42,11.76,10.35,26.23,7.18,40.82l-2.31,10.64-1.9-.41c-1.46-.32-2.97,.95-3.38,2.83l-1.3,5.96,7.83,1.7c2.41,.52,3.92,3.02,3.55,5.67l.47,.1c1.46,.32,2.97-.95,3.38-2.83Zm-122.87-22.68l-10.82,49.79c-.41,1.88,.64,3.7,2.33,4.07l9.59,2.08c1.7,.37,3.4-.86,3.81-2.74l10.82-49.8c.41-1.88-.64-3.7-2.33-4.07l-9.59-2.09c-1.69-.37-3.4,.86-3.81,2.74Zm115.1,21.44l-9.59-2.08c-1.7-.37-3.4,.86-3.81,2.74l-10.82,49.8c-.41,1.88,.64,3.7,2.33,4.07l9.59,2.08c1.7,.37,3.4-.86,3.81-2.74l10.81-49.8c.41-1.88-.63-3.7-2.33-4.07Z"/>
</svg>