<?xml version="1.0" encoding="utf-8"?>
<svg version="1.1" id="rock_roll" xmlns="http://www.w3.org/2000/svg" xmlns:xlink="http://www.w3.org/1999/xlink" x="0px"
	 y="0px" viewBox="0 0 222.5 230.7" style="enable-background:new 0 0 222.5 230.7;" xml:space="preserve">
<style type="text/css">
	.st0{fill:#9BCA3B;}
</style>
<path class="st0" d="M24.8,230.7C11.1,230.7,0,219.6,0,205.9V24.8C0,11.1,11.1,0,24.8,0h172.9c13.7,0,24.8,11.1,24.8,24.8v181.1
	c0,13.7-11.1,24.8-24.8,24.8H24.8z M217.5,205.9V24.8c0-10.9-8.9-19.8-19.8-19.8H24.8C13.9,5,5,13.8,5,24.8c0,0,0,0,0,0v181.1
	c0,10.9,8.9,19.8,19.8,19.8c0,0,0,0,0,0h172.9C208.6,225.7,217.5,216.8,217.5,205.9L217.5,205.9z M202.4,104.7
	c-0.6,2.4-3.1,4.1-5.6,4.8c-1.7,0.5-3.3,0.5-5.2,1c-7,1.9-10.6,7.3-10.4,13.4l0.5-0.1c0.7-2.4,2.6-4.1,5.5-4.9
	c1.7-0.5,3.6-0.6,5.4-1c-0.2,9.9-3.4,15.5-10.9,17.5c-4.6,1.2-7.3-1.4-8.4-5.4c-1.7-6.5,0.8-16.4,7.6-20c-5.2,0-8.3-3.5-9.4-7.6
	c-1.3-4.9,0.2-10.7,4.2-11.8c1.8-0.5,4,0,4.8,2.9c0.6,2.4,0.2,5.9-1.3,6.9c1,0.9,2.4,1.3,3.7,1c2.7-0.7,4.2-4.4,3.1-8.7
	c-1.6-5.8-6.7-7.6-12.1-6.2c-8.7,2.3-12.7,11.8-10.8,19.1c0.8,3.3,3.2,6.1,6.4,7.3c-7.3,4.1-9.6,14.2-7.6,21.5
	c1.8,6.6,7.1,11.3,15.8,9c11.4-3.1,17.8-14.5,17.2-26.6c5.5-2.4,8.9-8.7,7.9-12.6L202.4,104.7z M32.2,72.3l2.8,47.1l9.8-2.6
	l-1.7-27.9c0.7-0.4,1.5-0.7,2.2-0.9c3-0.8,4.5,0.9,5.3,3.7c1.4,5.3,0.1,14.8,1.4,19.4c0.6,2.3,2.2,4.5,6.5,3.3
	c2.3-0.7,4.4-1.7,6.4-3c-1.8-0.2-3.3-1.7-3.9-4.1c-1.1-4.2,0.1-12.8-1.4-18.6c-0.9-3.3-2.7-5.6-6.6-5.7c4-4.1,5.3-9.7,4.2-13.9
	c-1.6-5.8-8-10-17.8-7.3c-12.5,3.4-22,15.5-19.4,25.2c1.3,4.7,4.5,5.7,9,4.5c-1.1-1.3-1.9-2.8-2.2-4.5C23.8,76.3,30,67.8,39.3,65.3
	c6.8-1.8,9.5,1.1,10.5,4.8c1.5,5.7-0.7,13.5-6.3,15l-0.5,0.1l-1-17.1L32.2,72.3z M78.5,69.7c-14,3.8-14.1,21.7-11.9,29.8
	s7.5,9.9,13.8,8.2c8.3-2.2,13-12.3,10.6-25.7c4.7-2.2,8.6-5.5,10.3-9l-1.1-1.7c-2.3,2.9-6.2,6.2-9.3,7c-0.2,0.1-0.5,0.1-0.8,0.1
	C88.1,71.1,84.2,68.2,78.5,69.7z M81.3,100.3c-2.6,0.7-3.7-0.1-5-4.8c-1.8-6.9-1-20.5,3.8-21.8c1.7-0.5,2.7,0.4,3.6,3.2
	c-1.1,0.8-1.6,2.3-1.1,4.3c0.4,1.4,1.1,2.5,2.6,2.4C86.5,92.3,84.7,99.4,81.3,100.3z M112.2,72.7c1,0.3,2,0.3,2.9,0.1
	c2-0.5,2.9-3.4,2-6.9c-0.8-3-3.2-5.8-9.2-4.2c-13.8,3.7-13.7,21.6-11.6,29.6s7.2,10,13.6,8.3c9-2.4,13-10.5,15.1-18l-2.3,0.6
	c-2.3,4.9-4.7,8.9-10.1,10.3c-3.3,0.9-5.5,0.2-6.8-4.6c-2.1-7.6-1.2-21.4,3.5-22.7c1.3-0.3,2.2,0.5,2.6,2.1
	C112.4,69.2,112.4,70.9,112.2,72.7z M142,53l-10.2,14.2l-1.6-26.1l-9.7,4.1l3,50.3l9.8-2.6l-1.1-18.3c1.5-2.1,2.8-3.5,4.3-3.9
	c1.8-0.5,2.8,0.7,3.3,2.7c0.2,0.9,0.4,1.8,0.4,2.7l0.2,2.9c0.1,1.3,0.3,2.5,0.6,3.8c1.4,5.1,5.1,7.2,10.7,5.7
	c1.8-0.5,5.4-3.8,4.4-8.9c-0.6,0.6-1.4,0.9-2.3,1.1c-2.1,0.6-3-0.5-3.3-1.9c-0.2-0.8-0.3-1.6-0.3-2.3l-0.2-3.7
	c0-0.9-0.2-1.8-0.4-2.7c-1.2-4.5-4.6-7.5-9.7-6.2c-0.7,0.2-1.5,0.5-2.2,0.9l10.9-13.4L142,53z M51.1,142.5l2.8,47.1l9.8-2.6L62,159
	c0.7-0.4,1.5-0.7,2.2-0.9c3-0.8,4.5,0.9,5.3,3.7c1.4,5.3,0.1,14.8,1.4,19.4c0.6,2.3,2.2,4.5,6.6,3.3c2.3-0.7,4.4-1.7,6.4-3
	c-1.8-0.2-3.3-1.7-3.9-4.1c-1.1-4.2,0.1-12.8-1.4-18.6c-0.9-3.3-2.7-5.6-6.6-5.7c4-4.1,5.3-9.7,4.2-13.9c-1.6-5.8-8-10-17.8-7.3
	c-12.5,3.4-22,15.5-19.4,25.2c1.3,4.7,4.5,5.7,9,4.5c-1.1-1.3-1.9-2.8-2.2-4.5c-2.9-10.6,3.2-19.1,12.6-21.7
	c6.8-1.9,9.5,1.1,10.5,4.9c1.5,5.7-0.7,13.5-6.3,15l-0.5,0.1l-1-17.1L51.1,142.5z M97.4,139.9c-14,3.8-14.1,21.7-11.9,29.8
	s7.5,9.9,13.8,8.2c8.3-2.2,13-12.3,10.5-25.6c4.7-2.2,8.6-5.5,10.3-9l-1.1-1.7c-2.3,2.9-6.2,6.2-9.3,7c-0.2,0.1-0.5,0.1-0.8,0.1
	C107,141.3,103.1,138.3,97.4,139.9z M100.2,170.5c-2.6,0.7-3.7-0.1-5-4.8c-1.8-6.9-1-20.5,3.8-21.8c1.7-0.5,2.7,0.4,3.6,3.2
	c-1.1,0.8-1.6,2.3-1.1,4.3c0.4,1.4,1.1,2.5,2.6,2.4C105.4,162.5,103.6,169.6,100.2,170.5L100.2,170.5z M113.4,122.4l2.2,37.1
	c0.1,1.6,0.3,3.2,0.7,4.7c1.6,5.9,5.4,7.6,9.5,6.5c3.6-1,9.9-4.3,10.7-16.8l-2.9,0.8c-0.1,3.8-1.8,7.1-4.4,7.8
	c-1.9,0.5-3,0.1-3.5-1.9c-0.2-0.8-0.3-1.5-0.3-2.3l-2.4-40L113.4,122.4z M141,113.3l-9.6,4.1l2.2,37.1c0.1,1.6,0.3,3.2,0.7,4.7
	c1.6,6,5.5,7.7,9.6,6.6c3.6-1,6.5-4.3,5.5-9.4c-0.6,0.5-1.3,0.9-2.1,1c-2.1,0.6-3.1-0.4-3.5-2.1c-0.2-0.7-0.3-1.4-0.3-2.1L141,113.3
	z"/>
</svg>
