<?xml version="1.0" encoding="UTF-8"?>
<svg id="Layer_1" data-name="Layer 1" xmlns="http://www.w3.org/2000/svg" viewBox="0 0 222.46 230.69">
  <defs>
    <style>
      .cls-1 {
        fill: #e7d7a7;
      }
    </style>
  </defs>
  <path class="cls-1" d="M24.78,230.69c-13.66,0-24.78-11.11-24.78-24.78V24.78C0,11.11,11.11,0,24.78,0H197.68c13.66,0,24.78,11.11,24.78,24.78V205.92c0,13.66-11.11,24.78-24.78,24.78H24.78Zm192.68-24.78V24.78c0-10.92-8.85-19.78-19.78-19.78H24.78C13.85,5,5,13.85,5,24.78V205.92c0,10.92,8.85,19.78,19.78,19.78H197.68c10.92,0,19.78-8.85,19.78-19.78ZM53.98,138.24c3.6,0,6.53-2.93,6.53-6.54v-32.72c0-3.62-2.93-6.55-6.53-6.55s-6.55,2.93-6.55,6.55v32.72c0,3.62,2.93,6.54,6.55,6.54h0Zm0,0,19.07,16.37c3.62,0,6.55-2.93,6.55-6.55V82.63c0-3.62-2.93-6.55-6.55-6.55s-6.54,2.93-6.54,6.55v65.43c0,3.62,2.93,6.55,6.54,6.55h0Zm0,0,19.09-8.19c3.62,0,6.55-2.93,6.55-6.54v-49.07c0-3.62-2.93-6.55-6.55-6.55s-6.55,2.93-6.55,6.55v49.07c0,3.61,2.93,6.54,6.55,6.54h0Zm0,0,19.09,16.37c3.6,0,6.54-2.93,6.54-6.55V74.45c0-3.62-2.93-6.55-6.54-6.55s-6.55,2.93-6.55,6.55v81.79c0,3.62,2.93,6.55,6.55,6.55h0Zm0,0,19.09,16.36c3.6,0,6.54-2.93,6.54-6.55V58.1c0-3.62-2.93-6.55-6.54-6.55s-6.55,2.93-6.55,6.55v114.5c0,3.62,2.93,6.55,6.55,6.55h0Zm0,0,19.07-24.54c3.62,0,6.55-2.93,6.55-6.55V82.63c0-3.62-2.93-6.55-6.55-6.55s-6.54,2.93-6.54,6.55v65.43c0,3.62,2.93,6.55,6.54,6.55h0Zm0,0,19.09-24.55c3.62,0,6.55-2.93,6.55-6.54v-16.36c0-3.62-2.93-6.55-6.55-6.55s-6.55,2.93-6.55,6.55v16.36c0,3.6,2.93,6.54,6.55,6.54h0Zm0,0"/>
</svg>