<svg id="blue" xmlns="http://www.w3.org/2000/svg" viewBox="0 0 222.46 230.69">
  <defs>
    <style>
      .cls-1 {
        fill: #00adee;
      }
    </style>
  </defs>
  <path class="cls-1" d="M24.78,230.69A24.8,24.8,0,0,1,0,205.92V24.78A24.8,24.8,0,0,1,24.78,0h172.9a24.81,24.81,0,0,1,24.78,24.78V205.92a24.8,24.8,0,0,1-24.78,24.77Zm192.68-24.77V24.78A19.78,19.78,0,0,0,197.68,5H24.78A19.77,19.77,0,0,0,5,24.78V205.92a19.77,19.77,0,0,0,19.78,19.77h172.9A19.78,19.78,0,0,0,217.46,205.92Zm-79.28-45a42.45,42.45,0,0,1-7.11,3.75l2.18,13.11c.37,1.27.57,2.23.8,3.4s.38,2.47.48,3.73A25.23,25.23,0,0,1,134,193a15.22,15.22,0,0,1-4.8,8.07,14.47,14.47,0,0,1-4,2.3,14.78,14.78,0,0,1-2,.59c-.44.09-.45.13-1.23.25l-.73.08a17.71,17.71,0,0,1-4,.07,17.93,17.93,0,0,1-11.35-5.3,16.15,16.15,0,0,1-4.28-8.78,16.6,16.6,0,0,1-.08-4.71,23.3,23.3,0,0,1,.88-4.23,5.16,5.16,0,0,1,6.57-3.82,5.93,5.93,0,0,1,3.79,6.92l-.2.9a12.26,12.26,0,0,0-.42,1.89,4.57,4.57,0,0,0,0,1.56,4.14,4.14,0,0,0,1.07,2.33,7,7,0,0,0,2.83,1.73,8.21,8.21,0,0,0,1.86.4,5.59,5.59,0,0,0,.84.05l.36,0,.7-.08.63-.07.31-.07a7,7,0,0,0,.8-.23,4.94,4.94,0,0,0,1.13-.64,4.46,4.46,0,0,0,1.26-2.34,14.38,14.38,0,0,0,.22-4.37,22.59,22.59,0,0,0-.35-2.53c-.14-.78-.38-1.8-.54-2.33a6.4,6.4,0,0,1-.18-.69L121,167.43a52.73,52.73,0,0,1-10.51.49A43,43,0,0,1,80.87,153.4,47,47,0,0,1,72,138.29a38.86,38.86,0,0,1-2.12-18.56,42.92,42.92,0,0,1,6-16.59,74.76,74.76,0,0,1,9.62-12.43,217.77,217.77,0,0,1,16.23-15.16l-.6-2.79A92.86,92.86,0,0,1,99,57.18,43,43,0,0,1,101.29,40c.51-1.53,1-2.33,1.45-3.53a18.18,18.18,0,0,1,2.75-4.55,15.16,15.16,0,0,1,9.56-5.5c7.67-1.16,15,4.16,17.89,10.74a28.14,28.14,0,0,1,1.25,19.73,46.2,46.2,0,0,1-8.07,14.83A107,107,0,0,1,116,82.91c-.35.35-.72.69-1.08,1,.07.37.14.75.2,1.12L118,99.42a20.49,20.49,0,0,1,3.26-.08,31.15,31.15,0,0,1,8.25,1.66c.9.31,1.78.66,2.66,1h0a36.35,36.35,0,0,1,5.91,3.19l.25.16q1.32.9,2.58,1.92l.41.35c.84.71,1.67,1.44,2.46,2.24l.13.14h0a30.67,30.67,0,0,1,5.63,8h0a30.91,30.91,0,0,1,2.19,5.8h0c.21.8.39,1.6.53,2.42a39.06,39.06,0,0,1-1.16,17.83,28.71,28.71,0,0,1-4.19,8.56A30.94,30.94,0,0,1,140.8,159c-.86.66-1.73,1.27-2.62,1.85ZM110.62,57a71.14,71.14,0,0,0,1,9.41c4.4-4.61,8.24-9.56,9.85-14.31a13.33,13.33,0,0,0-.06-9c-1-2.37-2.94-3.55-4.49-3.41a3.3,3.3,0,0,0-2.22,1.17,5.21,5.21,0,0,0-1,1.49c-.44,1-1.16,2.31-1.39,3.1A29.87,29.87,0,0,0,110.62,57Zm7.28,95.59-7.52-36.47-.3-1.43a21.61,21.61,0,0,0-3.74,2.91c-5.43,5.2-4.55,12.16,1.56,13.19h0a5.87,5.87,0,0,1,4.63,6.58,5.29,5.29,0,0,1-6,4.81,3.53,3.53,0,0,1-.64-.16,19.71,19.71,0,0,1-8.56-5.11,17.65,17.65,0,0,1-4.71-9.71l-.17-1.3,0-1.38,0-.92c0-.38.07-1,.13-1.46A18.77,18.77,0,0,1,93.84,117a24.82,24.82,0,0,1,4.94-7.69,33.36,33.36,0,0,1,8.79-6.59l-2.08-9.92c-3.28,3-6.43,6-9.35,9.2-5.91,6.36-10.65,13.44-11.43,20.37a23,23,0,0,0,1.23,10.41,30.83,30.83,0,0,0,5.65,10.08c4.77,5.73,12,9,19.59,9.74A35.08,35.08,0,0,0,117.9,152.56Zm14.89-5.33a17.52,17.52,0,0,0,3.72-3.55,12.94,12.94,0,0,0,2.27-4.15c.22-.69.41-1.38.58-2.06l.09-.37c.17-.7.31-1.41.43-2.1v0a22.68,22.68,0,0,0,.3-4.39,17.64,17.64,0,0,0-.19-2.19,14.42,14.42,0,0,0-.27-1.46h0a14.8,14.8,0,0,0-.62-2.06v0a15.72,15.72,0,0,0-.89-1.91,1.09,1.09,0,0,0-.08-.15,19.94,19.94,0,0,0-4.17-5.19l0-.06a24.64,24.64,0,0,0-5.91-3.9c-.63-.29-1.26-.57-1.91-.82a20.71,20.71,0,0,0-5.24-1.28l-.45,0,.5,2.54,7.22,35.88A27.2,27.2,0,0,0,132.79,147.23Z"/>
</svg>
