<svg id="gray-mic" xmlns="http://www.w3.org/2000/svg" viewBox="0 0 222.46 230.69">
  <defs>
    <style>
      .cls-1 {
        fill: #4c557c;
      }
    </style>
  </defs>
  <path class="cls-1" d="M197.68,0H24.78A24.8,24.8,0,0,0,0,24.77V205.92a24.8,24.8,0,0,0,24.78,24.77h172.9a24.8,24.8,0,0,0,24.78-24.77V24.77A24.8,24.8,0,0,0,197.68,0Zm19.78,205.92a19.78,19.78,0,0,1-19.78,19.77H24.78A19.77,19.77,0,0,1,5,205.92V24.78A19.77,19.77,0,0,1,24.78,5h172.9a19.78,19.78,0,0,1,19.78,19.78ZM107.3,31h8.76a32.22,32.22,0,0,1,32.23,32.22H75.07A32.22,32.22,0,0,1,107.3,31ZM75.07,69.65h72.85V81.8H75.07Zm73.11,18.11V99.9H75.33V87.76ZM74.8,106.49h72.85v12.14H74.8ZM148.11,125a32.23,32.23,0,0,1-32.23,32.23h-8.76A32.24,32.24,0,0,1,74.88,125ZM117.3,181.09v18.59H105.15V181.09a62.21,62.21,0,0,1-56-61.83,6.08,6.08,0,0,1,12.15,0,50,50,0,1,0,100,0,6.08,6.08,0,0,1,12.15,0A62.22,62.22,0,0,1,117.3,181.09ZM107.3,31h8.76a32.22,32.22,0,0,1,32.23,32.22H75.07A32.22,32.22,0,0,1,107.3,31ZM75.07,69.65h72.85V81.8H75.07Zm73.11,18.11V99.9H75.33V87.76ZM74.8,106.49h72.85v12.14H74.8ZM148.11,125a32.23,32.23,0,0,1-32.23,32.23h-8.76A32.24,32.24,0,0,1,74.88,125ZM117.3,181.09v18.59H105.15V181.09a62.21,62.21,0,0,1-56-61.83,6.08,6.08,0,0,1,12.15,0,50,50,0,1,0,100,0,6.08,6.08,0,0,1,12.15,0A62.22,62.22,0,0,1,117.3,181.09ZM74.88,125h73.23a32.23,32.23,0,0,1-32.23,32.23h-8.76A32.24,32.24,0,0,1,74.88,125Zm0,0h73.23a32.23,32.23,0,0,1-32.23,32.23h-8.76A32.24,32.24,0,0,1,74.88,125Zm73.41-61.71H75.07A32.22,32.22,0,0,1,107.3,31h8.76A32.22,32.22,0,0,1,148.29,63.24Zm0,0H75.07A32.22,32.22,0,0,1,107.3,31h8.76A32.22,32.22,0,0,1,148.29,63.24Zm-.37,18.56H75.07V69.65h72.85Zm0,0H75.07V69.65h72.85Zm-72.59,6h72.85V99.9H75.33Zm0,0h72.85V99.9H75.33Zm72.32,30.87H74.8V106.49h72.85Zm0,0H74.8V106.49h72.85Zm25.71.63a62.22,62.22,0,0,1-56.06,61.83v18.59H105.15V181.09a62.21,62.21,0,0,1-56-61.83,6.08,6.08,0,0,1,12.15,0,50,50,0,1,0,100,0,6.08,6.08,0,0,1,12.15,0Zm0,0a62.22,62.22,0,0,1-56.06,61.83v18.59H105.15V181.09a62.21,62.21,0,0,1-56-61.83,6.08,6.08,0,0,1,12.15,0,50,50,0,1,0,100,0,6.08,6.08,0,0,1,12.15,0Z"/>
</svg>
