<svg id="guitar_electric" xmlns="http://www.w3.org/2000/svg" viewBox="0 0 222.46 230.69">
  <defs>
    <style>
      .cls-1 {
        fill: #9bb4dd;
      }
    </style>
  </defs>
  <path class="cls-1" d="M24.78,230.69A24.8,24.8,0,0,1,0,205.92V24.78A24.8,24.8,0,0,1,24.78,0h172.9a24.81,24.81,0,0,1,24.78,24.78V205.92a24.8,24.8,0,0,1-24.78,24.77Zm192.68-24.77V24.78A19.78,19.78,0,0,0,197.68,5H24.78A19.77,19.77,0,0,0,5,24.78V205.92a19.77,19.77,0,0,0,19.78,19.77h172.9A19.78,19.78,0,0,0,217.46,205.92ZM108.52,165.09c7.22-8.61,15-8.87,20-12.76,15.11-11.59-6.27-7.15-12.15-12-3.56-2.9-3.46-8.3,3.29-16.35a12,12,0,0,0,1.25-1.77L170,61.14h0c.83-1,4.22-2.68,7.83-2.65,2.22,0,5.86-1.13,7-2.8a67.19,67.19,0,0,1,12.87-14c7.36-5.89,8.88-11.42-2.77-5.58l-3.21,1.61-.45-.88a1.32,1.32,0,0,0,.63-.86l-.6-1.16c-.9-.88-3,.16-2.81,1.41l.59,1.16a1.52,1.52,0,0,0,1.22,0l.44.85L187.22,40l-.45-.87a1.34,1.34,0,0,0,.63-.87l-.6-1.16c-.9-.88-3,.16-2.81,1.41l.59,1.16a1.48,1.48,0,0,0,1.22,0l.44.85-3.54,1.78-.45-.88a1.34,1.34,0,0,0,.63-.87l-.6-1.16c-.9-.87-3,.17-2.82,1.41l.6,1.16a1.47,1.47,0,0,0,1.22,0l.44.85-3.54,1.77-.45-.87a1.28,1.28,0,0,0,.62-.87l-.59-1.16c-.9-.88-3,.16-2.82,1.41l.6,1.16a1.48,1.48,0,0,0,1.22,0l.43.85-3.54,1.78-.44-.88a1.28,1.28,0,0,0,.62-.87l-.59-1.16c-.9-.88-3,.16-2.82,1.41l.6,1.16a1.48,1.48,0,0,0,1.22,0l.43.86-3.54,1.77-.45-.87a1.32,1.32,0,0,0,.63-.87l-.59-1.16c-.9-.88-3,.16-2.82,1.41l.59,1.16a1.48,1.48,0,0,0,1.22,0l.44.85-1.17.59c-1.1.55-2,.4-2.25,3.21a5.16,5.16,0,0,1-.79,2.7l-51.88,59.38-.25.24c-21.22,22.34-.52-37.78-23.14-8.11-5.71,7.49-5,21-12.54,26.12-4.14,2.81-16.92,9.46-33.92,20.08-18.42,11.51-35.77,34-10.75,31.24,50-5.46,55.13,20.78,65.11,8.86C105.74,182.93,101.66,173.28,108.52,165.09Z"/>
</svg>
