<?xml version="1.0" encoding="UTF-8"?>
<svg id="Layer_1" data-name="Layer 1" xmlns="http://www.w3.org/2000/svg" viewBox="0 0 222.46 230.69">
  <defs>
    <style>
      .cls-1 {
        fill: #e7d7a7;
      }
    </style>
  </defs>
  <path class="cls-1" d="M24.78,230.69c-13.66,0-24.78-11.11-24.78-24.78V24.78C0,11.11,11.11,0,24.78,0H197.68c13.66,0,24.78,11.11,24.78,24.78V205.92c0,13.66-11.11,24.78-24.78,24.78H24.78Zm192.68-24.78V24.78c0-10.92-8.85-19.78-19.78-19.78H24.78C13.85,5,5,13.85,5,24.78V205.92c0,10.92,8.85,19.78,19.78,19.78H197.68c10.92,0,19.78-8.85,19.78-19.78Zm-144.34-26.68c.75-.54,1.48-1.12,2.21-1.73,6.42-5.38,10.44-12.3,11.74-19.05l.1,.02,.12-1.27c.14-.96,.23-1.92,.25-2.86l.82-9.33,1.17-13.34,1.87-21.25,1.17-13.43,.8-9.18,52.33-9.21,33.04-5.82-.86,9.7-1.68,19.06-1.11,12.71-1.57,17.83c-7.45-7.04-20.44-6.76-31.46,.34-.54,.36-1.11,.64-1.65,1.03-.75,.55-1.49,1.1-2.21,1.71-3.39,2.86-6.1,6.14-8.12,9.59-5.3,9.1-5.64,19.43,.11,26.27,7.47,8.92,22.47,8.79,34.5,.1,.74-.54,1.49-1.11,2.22-1.72,5.91-4.95,9.76-11.2,11.35-17.42,.45-1.76,.76-3.52,.83-5.25h0l.66-7.41,2.07-23.56,1.11-12.74,1.69-19.12,1.08-12.35,.03-.42,2.3-26.23-98.48,17.34-.8-.07-.42,4.66-1.18,13.4-1.53,17.52-1.18,13.35-1.86,21.12-.68,7.91c-7.83-7.36-21.77-6.77-33.09,1.39-.75,.55-1.49,1.12-2.2,1.72-3.52,2.95-6.31,6.38-8.34,9.96-5.1,9.02-5.34,19.15,.32,25.91,7.47,8.9,22.46,8.77,34.51,.09Z"/>
</svg>