<svg id="gray" xmlns="http://www.w3.org/2000/svg" viewBox="0 0 222.46 230.69">
  <defs>
    <style>
      .cls-1 {
        fill: #94a1ab;
      }
    </style>
  </defs>
  <path class="cls-1" d="M24.78,230.69A24.8,24.8,0,0,1,0,205.92V24.77A24.8,24.8,0,0,1,24.78,0h172.9a24.8,24.8,0,0,1,24.78,24.77V205.92a24.8,24.8,0,0,1-24.78,24.77Zm192.68-24.77V24.78A19.78,19.78,0,0,0,197.68,5H24.78A19.77,19.77,0,0,0,5,24.78V205.92a19.77,19.77,0,0,0,19.78,19.77h172.9A19.78,19.78,0,0,0,217.46,205.92Zm-44-127c-10-15.47-33.45-25.34-51.28-30.88-4.1-1.28-7.92-2.33-11.18-3.17a9.69,9.69,0,0,0-8.14,1.45,10.25,10.25,0,0,0-4.1,7.58L97.24,73.3l-1.8,22.42L93.5,119.81a34.75,34.75,0,1,0,15.88,48.48c3.12-5.6,4.32-16,4.87-22.44.86-10.35,2.14-25.85,3.17-38.6,1-12.31,1.79-22,1.79-22,1.24.1,2.33.28,3.5.41,20.75,2.41,29.82,10.11,32.83,19.1,2.7,8.08.61,17.1-2.2,24.1-.23.56-.43,1.1-.65,1.63-2.11,4.87-1.69,6.46,1.19,4.38a19.46,19.46,0,0,0,2.1-1.75c.54-.5,1-1,1.52-1.48a91.43,91.43,0,0,0,13.77-16.21C180.69,100.75,179.84,88.7,173.5,78.88Z"/>
</svg>
