<?xml version="1.0" encoding="UTF-8"?>
<svg id="Layer_1" data-name="Layer 1" xmlns="http://www.w3.org/2000/svg" viewBox="0 0 222.46 230.69">
  <defs>
    <style>
      .cls-1 {
        fill: #e7d7a7;
      }
    </style>
  </defs>
  <path class="cls-1" d="M24.78,230.69c-13.66,0-24.78-11.11-24.78-24.78V24.77C0,11.11,11.11,0,24.78,0H197.68c13.66,0,24.77,11.11,24.77,24.77V205.92c0,13.66-11.11,24.78-24.77,24.78H24.78Zm192.68-24.78V24.78c0-10.92-8.85-19.78-19.78-19.78H24.78C13.85,5,5,13.85,5,24.78V205.92c0,10.92,8.85,19.78,19.78,19.78H197.68c10.92,0,19.78-8.85,19.78-19.78Zm-43.95-127.04c-10.01-15.47-33.45-25.34-51.28-30.88-4.09-1.28-7.91-2.33-11.18-3.17-3.04-.76-5.92-.15-8.14,1.45-2.28,1.65-3.84,4.34-4.1,7.57l-1.56,19.44-1.79,22.43-1.95,24.08c-3.62-1.68-7.55-2.78-11.75-3.13-8.57-.69-16.67,1.8-23.14,6.47-7.98,5.76-13.5,14.85-14.34,25.44-1.55,19.15,12.73,35.93,31.89,37.48,8.56,.69,16.66-1.78,23.14-6.46,4.11-2.97,7.58-6.82,10.08-11.33,3.12-5.59,4.32-16.04,4.87-22.43,.87-10.36,2.14-25.86,3.17-38.6,1-12.31,1.79-22.05,1.79-22.05,1.24,.11,2.33,.29,3.51,.41,20.75,2.41,29.82,10.12,32.83,19.1,2.7,8.09,.6,17.1-2.2,24.11-.23,.56-.43,1.1-.65,1.63-2.11,4.87-1.69,6.46,1.19,4.38,.59-.42,1.29-1.01,2.09-1.75,.55-.5,1-.99,1.52-1.48,5.98-5.73,10.5-11.13,13.77-16.21,9.43-14.63,8.57-26.68,2.24-36.5Z"/>
</svg>