<?xml version="1.0" encoding="utf-8"?>
<!-- Generator: Adobe Illustrator 26.2.1, SVG Export Plug-In . SVG Version: 6.00 Build 0)  -->
<svg version="1.1" id="tune" xmlns="http://www.w3.org/2000/svg" xmlns:xlink="http://www.w3.org/1999/xlink" x="0px" y="0px"
	 viewBox="0 0 222.5 230.7" style="enable-background:new 0 0 222.5 230.7;" xml:space="preserve">
<style type="text/css">
	.st0{fill:#C2569F;}
</style>
<path id="pink-2" class="st0" d="M24.8,230.7C11.1,230.7,0,219.6,0,205.9V24.8C0,11.1,11.1,0,24.8,0h172.9
	c13.7,0,24.8,11.1,24.8,24.8v181.1c0,13.7-11.1,24.8-24.8,24.8H24.8z M217.5,205.9V24.8c0-10.9-8.9-19.8-19.8-19.8H24.8
	C13.9,5,5,13.8,5,24.8c0,0,0,0,0,0v181.1c0,10.9,8.9,19.8,19.8,19.8c0,0,0,0,0,0h172.9C208.6,225.7,217.5,216.8,217.5,205.9
	L217.5,205.9z M73.1,179.2c0.7-0.5,1.5-1.1,2.2-1.7c6-4.8,10.1-11.5,11.7-19h0.1l0.1-1.3c0.1-0.9,0.2-1.9,0.2-2.9l0.8-9.3l1.2-13.3
	l1.9-21.2L92.6,97l0.8-9.2l52.3-9.2l33.1-5.8l-0.9,9.7l-1.7,19.1l-1.1,12.7l-1.6,17.8c-7.4-7-20.4-6.8-31.5,0.3
	c-0.5,0.4-1.1,0.6-1.6,1c-0.8,0.5-1.5,1.1-2.2,1.7c-3.2,2.7-6,6-8.1,9.6c-5.3,9.1-5.6,19.4,0.1,26.3c7.5,8.9,22.5,8.8,34.5,0.1
	c0.7-0.6,1.5-1.1,2.2-1.7c5.5-4.5,9.5-10.5,11.3-17.4c0.5-1.7,0.7-3.5,0.8-5.2l0,0l0.7-7.4l2.1-23.6L183,103l1.7-19.1l1.1-12.3v-0.4
	l2.3-26.2L89.6,62.2l-0.8-0.1l-0.4,4.7l-1.2,13.4l-1.5,17.5l-1.2,13.3l-1.9,21.1l-0.7,7.9c-7.8-7.4-21.8-6.8-33.1,1.4
	c-0.8,0.6-1.5,1.1-2.2,1.7c-3.4,2.8-6.2,6.2-8.3,10c-5.1,9-5.3,19.1,0.3,25.9C46.1,188,61.1,187.9,73.1,179.2z"/>
</svg>
