<svg id="CD-red" xmlns="http://www.w3.org/2000/svg" viewBox="0 0 222.46 230.69">
  <defs>
    <style>
      .cls-1 {
        fill: red;
      }
    </style>
  </defs>
  <path class="cls-1" d="M24.78,230.69A24.8,24.8,0,0,1,0,205.92V24.78A24.8,24.8,0,0,1,24.78,0h172.9a24.81,24.81,0,0,1,24.78,24.78V205.92a24.8,24.8,0,0,1-24.78,24.77Zm192.68-24.77V24.78A19.78,19.78,0,0,0,197.68,5H24.78A19.77,19.77,0,0,0,5,24.78V205.92a19.77,19.77,0,0,0,19.78,19.77h172.9A19.78,19.78,0,0,0,217.46,205.92ZM198,115.35a86.73,86.73,0,1,1-86.72-86.73A86.72,86.72,0,0,1,198,115.35Zm-154.3,0a67.4,67.4,0,0,1,4.19-23.43H44a70.93,70.93,0,0,0,0,46.85h3.81A67.39,67.39,0,0,1,43.65,115.35Zm12,0a55.31,55.31,0,0,1,5.19-23.43H57.57a58.33,58.33,0,0,0,0,46.85h3.25A55.3,55.3,0,0,1,55.63,115.35Zm89.17,0a33.57,33.57,0,1,0-33.57,33.57A33.58,33.58,0,0,0,144.8,115.35Zm25,0a58.17,58.17,0,0,0-4.91-23.43h-3.25a55.46,55.46,0,0,1,0,46.85h3.25A58.15,58.15,0,0,0,169.8,115.35Zm8.63,23.42a70.93,70.93,0,0,0,0-46.85h-3.82a67.43,67.43,0,0,1,0,46.85Zm-67.2-34.45a11,11,0,1,0,11,11A11,11,0,0,0,111.23,104.32Z"/>
</svg>
