<?xml version="1.0" encoding="UTF-8"?>
<svg id="Layer_1" data-name="Layer 1" xmlns="http://www.w3.org/2000/svg" viewBox="0 0 222.46 230.69">
  <defs>
    <style>
      .cls-1 {
        fill: #e7d7a7;
      }
    </style>
  </defs>
  <path class="cls-1" d="M24.78,230.69c-13.66,0-24.78-11.11-24.78-24.78V24.77C0,11.11,11.11,0,24.78,0H197.68c13.66,0,24.77,11.11,24.77,24.77V205.92c0,13.66-11.11,24.78-24.77,24.78H24.78Zm192.68-24.78V24.78c0-10.92-8.85-19.78-19.78-19.78H24.78C13.85,5,5,13.85,5,24.78V205.92c0,10.92,8.85,19.78,19.78,19.78H197.68c10.92,0,19.78-8.85,19.78-19.78Zm-109.14-41.82c4.41-6.68,11.9-8.55,14.74-12.03,2.85-3.5,3.5-5.65,1.38-7.05-2.12-1.4-5.85,2.26-10.54-1.73-3.26-2.78-3.82-7.18-2.83-11.14l51.97-80.45h0c.9-1.18,1.82-2.1,3.7-3.13,2.54-1.39,5.25-.82,5.95-2.77l3.81-10.7c2.42-6.78,8.04-7.31,8.43-9.28l1.44-7.27c.46-2.33-1.74-2.63-3.63-1.78-1.16,.52-2.73,1.45-4.53,2.64l-.7-.87c.26-.29,.49-.65,.69-1.08l-1.03-1.28c-.46-.19-1.94,.02-3.01,2.29l1.05,1.35c.36-.07,.79-.19,1.21-.41l.63,.79c-1.06,.73-2.18,1.52-3.34,2.38l-.64-.79c.26-.29,.49-.65,.69-1.08l-1.03-1.28c-.45-.19-1.94,.03-3.01,2.29l1.05,1.35c.36-.07,.78-.19,1.21-.41l.61,.76c-1.05,.79-2.12,1.62-3.19,2.46l-.57-.71c.26-.29,.49-.65,.69-1.08l-1.03-1.28c-.46-.19-1.94,.03-3.01,2.29l1.05,1.34c.36-.07,.78-.19,1.21-.41l.57,.71c-1.07,.86-2.13,1.73-3.15,2.59l-.51-.63c.26-.29,.49-.65,.69-1.08l-1.03-1.28c-.46-.19-1.94,.02-3.01,2.29l1.04,1.34c.36-.07,.78-.19,1.21-.41l.54,.67c-1.02,.88-1.99,1.74-2.9,2.57l-.44-.55c.26-.29,.49-.65,.69-1.08l-1.03-1.28c-.45-.19-1.94,.02-3.01,2.29l1.05,1.34c.36-.07,.78-.19,1.21-.41l.51,.64c-1.12,1.06-2.1,2.04-2.9,2.93l-.2-.26c.26-.29,.49-.65,.69-1.08l-1.03-1.28c-.45-.19-1.94,.03-3.01,2.29l1.04,1.34c.36-.07,.78-.19,1.21-.41l.37,.46c-.8,.99-1.27,1.78-1.28,2.26l-.14,6.36-49.14,72.42c-6.14-3.18-15.57-6.54-22.51-1.59-8.86,6.32-5.18,17.77-8.74,23.15s-22.56,3.67-33.64,20.46c-11.09,16.79-1.94,34.48,15.15,45.77,17.59,11.62,36.83,11.41,48.22-5.83,10.81-16.36-.34-29.95,4.07-36.63Z"/>
</svg>