<svg id="guitar" xmlns="http://www.w3.org/2000/svg" viewBox="0 0 222.46 230.69">
  <defs>
    <style>
      .cls-1 {
        fill: #71baaa;
      }
    </style>
  </defs>
  <path class="cls-1" d="M24.78,230.69A24.8,24.8,0,0,1,0,205.92V24.77A24.8,24.8,0,0,1,24.78,0h172.9a24.8,24.8,0,0,1,24.78,24.77V205.92a24.8,24.8,0,0,1-24.78,24.77Zm192.68-24.77V24.78A19.78,19.78,0,0,0,197.68,5H24.78A19.77,19.77,0,0,0,5,24.78V205.92a19.77,19.77,0,0,0,19.78,19.77h172.9A19.78,19.78,0,0,0,217.46,205.92ZM108.32,164.09c4.42-6.68,11.9-8.55,14.74-12s3.5-5.65,1.38-7.05-5.86,2.26-10.54-1.73c-3.26-2.78-3.82-7.18-2.83-11.14l52-80.45h0a10.5,10.5,0,0,1,3.7-3.12c2.54-1.38,5.25-.82,6-2.77l3.81-10.7c2.42-6.79,8-7.31,8.43-9.28l1.44-7.28c.47-2.32-1.74-2.63-3.62-1.78a35.18,35.18,0,0,0-4.53,2.64l-.7-.88a4.59,4.59,0,0,0,.69-1.07l-1-1.28c-.46-.19-1.94,0-3,2.29l1.05,1.34a4.07,4.07,0,0,0,1.2-.41l.64.79c-1.06.73-2.18,1.52-3.34,2.38l-.64-.8a4.18,4.18,0,0,0,.69-1.08l-1-1.28c-.45-.18-1.94,0-3,2.3L170.77,23a4.55,4.55,0,0,0,1.21-.41l.61.76c-1.05.79-2.12,1.61-3.19,2.46l-.57-.71a4.89,4.89,0,0,0,.69-1.08l-1-1.28c-.46-.19-1.94,0-3,2.29l1.05,1.35a4.11,4.11,0,0,0,1.2-.42l.58.72c-1.07.85-2.13,1.72-3.15,2.59l-.51-.64a4.46,4.46,0,0,0,.69-1.08l-1-1.27c-.46-.19-1.94,0-3,2.29l1,1.34a4.38,4.38,0,0,0,1.2-.41l.54.67c-1,.88-2,1.74-2.9,2.57l-.44-.55a4.29,4.29,0,0,0,.69-1.07l-1-1.28c-.45-.19-1.94,0-3,2.29l1,1.34a4.22,4.22,0,0,0,1.21-.41l.51.63c-1.12,1.06-2.11,2.05-2.91,2.93l-.2-.26a4.59,4.59,0,0,0,.69-1.07l-1-1.28c-.45-.19-1.94,0-3,2.29l1,1.34a4.07,4.07,0,0,0,1.2-.41l.38.46A5,5,0,0,0,155.05,40l-.14,6.36-49.14,72.42c-6.14-3.18-15.57-6.54-22.51-1.59-8.86,6.32-5.18,17.77-8.74,23.15S52,144,40.88,160.79,38.94,195.27,56,206.56c17.6,11.62,36.83,11.41,48.22-5.83C115.06,184.37,103.91,170.77,108.32,164.09Z"/>
</svg>
