<svg id="CD" xmlns="http://www.w3.org/2000/svg" viewBox="0 0 222.46 230.69">
  <defs>
    <style>
      .cls-1 {
        fill: #e7d7a7;
      }
    </style>
  </defs>
  <path class="cls-1" d="M24.78,230.69A24.8,24.8,0,0,1,0,205.92V24.77A24.8,24.8,0,0,1,24.78,0h172.9a24.8,24.8,0,0,1,24.78,24.77V205.92a24.8,24.8,0,0,1-24.78,24.77Zm192.68-24.77V24.78A19.78,19.78,0,0,0,197.68,5H24.78A19.77,19.77,0,0,0,5,24.78V205.92a19.77,19.77,0,0,0,19.78,19.77h172.9A19.78,19.78,0,0,0,217.46,205.92Zm-81.33-36a24.41,24.41,0,0,0-4.76.69A21.48,21.48,0,0,0,118.05,180a64.69,64.69,0,0,1-10.3.82A65.43,65.43,0,1,1,172,103.15L136.13,109v60.94ZM119.78,55.26s-11.69-3.67-19,0l5,30.71h7l7-30.71Zm-12,84.37a24.29,24.29,0,1,0-24.28-24.29,24.28,24.28,0,0,0,24.28,24.29Zm0-42.8a18.52,18.52,0,1,1-18.51,18.51,18.53,18.53,0,0,1,18.51-18.51Zm0,31.74a13.23,13.23,0,1,0-13.22-13.23,13.24,13.24,0,0,0,13.22,13.23Zm8.38,62.67a14.46,14.46,0,0,1-.35-2.91,73.43,73.43,0,1,1,64.15-86.46l7.9-1.29a81.44,81.44,0,1,0-80.07,96.21,83.2,83.2,0,0,0,10.4-.68,12.76,12.76,0,0,1-2-4.87ZM144,113.42v62.65a16.22,16.22,0,0,0-9.31-.29c-7.39,1.85-12.22,7.93-10.8,13.6.83,5.25,8.55,8.76,15.93,6.9,6.5-1.6,11-6.52,11.06-11.54l.17-52.92,38.18-7v42.54a16.68,16.68,0,0,0-9.47-.32c-7.47,1.87-12.36,8-10.92,13.75s8.64,8.85,16.11,7c6.79-1.71,11.16-6.37,11.16-12.22V105ZM196.15,105"/>
</svg>
