<?xml version="1.0" encoding="UTF-8"?>
<svg id="Layer_1" data-name="Layer 1" xmlns="http://www.w3.org/2000/svg" viewBox="0 0 222.46 230.69">
  <defs>
    <style>
      .cls-1 {
        fill: #e7d7a7;
      }
    </style>
  </defs>
  <path class="cls-1" d="M24.78,230.69c-13.66,0-24.78-11.11-24.78-24.78V24.77C0,11.11,11.11,0,24.78,0H197.68c13.66,0,24.78,11.11,24.78,24.77V205.92c0,13.66-11.11,24.78-24.78,24.78H24.78Zm192.68-24.78V24.78c0-10.92-8.85-19.78-19.78-19.78H24.78C13.85,5,5,13.85,5,24.78V205.92c0,10.92,8.85,19.78,19.78,19.78H197.68c10.92,0,19.78-8.85,19.78-19.78Zm-110.34-48.74h8.76c17.8,0,32.23-14.43,32.23-32.23H74.88c0,17.8,14.43,32.23,32.24,32.23Zm8.94-126.16h-8.76c-17.8,0-32.23,14.43-32.23,32.23h73.22c0-17.8-14.43-32.23-32.23-32.23Zm31.86,38.63H75.07v12.15h72.84v-12.15Zm.27,18.11H75.33v12.15h72.85v-12.15Zm-73.38,18.73v12.15h72.85v-12.15H74.8Zm98.56,12.77c0-3.35-2.72-6.08-6.07-6.08s-6.07,2.72-6.07,6.08c0,27.56-22.42,49.98-49.99,49.98s-49.98-22.42-49.98-49.98c0-3.35-2.72-6.08-6.07-6.08s-6.07,2.72-6.07,6.08c0,32.21,24.64,58.76,56.05,61.83v18.59h12.15v-18.59c31.42-3.07,56.06-29.62,56.06-61.83Z"/>
</svg>