<?xml version="1.0" encoding="UTF-8"?>
<svg id="rock_roll" data-name="rock roll" xmlns="http://www.w3.org/2000/svg" viewBox="0 0 222.5 230.7">
  <defs>
    <style>
      .cls-1 {
        fill: #9bca3b;
      }
    </style>
  </defs>
  <path class="cls-1" d="M24.8,230.7c-13.7,0-24.8-11.1-24.8-24.8V24.8C0,11.1,11.1,0,24.8,0H197.7c13.7,0,24.8,11.1,24.8,24.8V205.9c0,13.7-11.1,24.8-24.8,24.8H24.8Zm192.7-24.8V24.8c0-10.9-8.9-19.8-19.8-19.8H24.8C13.9,5,5,13.8,5,24.8h0V205.9c0,10.9,8.9,19.8,19.8,19.8H197.7c10.9,0,19.8-8.9,19.8-19.8h0Zm-15.1-101.2c-.6,2.4-3.1,4.1-5.6,4.8-1.7,.5-3.3,.5-5.2,1-7,1.9-10.6,7.3-10.4,13.4l.5-.1c.7-2.4,2.6-4.1,5.5-4.9,1.7-.5,3.6-.6,5.4-1-.2,9.9-3.4,15.5-10.9,17.5-4.6,1.2-7.3-1.4-8.4-5.4-1.7-6.5,.8-16.4,7.6-20-5.2,0-8.3-3.5-9.4-7.6-1.3-4.9,.2-10.7,4.2-11.8,1.8-.5,4,0,4.8,2.9,.6,2.4,.2,5.9-1.3,6.9,1,.9,2.4,1.3,3.7,1,2.7-.7,4.2-4.4,3.1-8.7-1.6-5.8-6.7-7.6-12.1-6.2-8.7,2.3-12.7,11.8-10.8,19.1,.8,3.3,3.2,6.1,6.4,7.3-7.3,4.1-9.6,14.2-7.6,21.5,1.8,6.6,7.1,11.3,15.8,9,11.4-3.1,17.8-14.5,17.2-26.6,5.5-2.4,8.9-8.7,7.9-12.6l-.4,.5ZM32.2,72.3l2.8,47.1,9.8-2.6-1.7-27.9c.7-.4,1.5-.7,2.2-.9,3-.8,4.5,.9,5.3,3.7,1.4,5.3,.1,14.8,1.4,19.4,.6,2.3,2.2,4.5,6.5,3.3,2.3-.7,4.4-1.7,6.4-3-1.8-.2-3.3-1.7-3.9-4.1-1.1-4.2,.1-12.8-1.4-18.6-.9-3.3-2.7-5.6-6.6-5.7,4-4.1,5.3-9.7,4.2-13.9-1.6-5.8-8-10-17.8-7.3-12.5,3.4-22,15.5-19.4,25.2,1.3,4.7,4.5,5.7,9,4.5-1.1-1.3-1.9-2.8-2.2-4.5-3-10.7,3.2-19.2,12.5-21.7,6.8-1.8,9.5,1.1,10.5,4.8,1.5,5.7-.7,13.5-6.3,15l-.5,.1-1-17.1-9.8,4.2Zm46.3-2.6c-14,3.8-14.1,21.7-11.9,29.8s7.5,9.9,13.8,8.2c8.3-2.2,13-12.3,10.6-25.7,4.7-2.2,8.6-5.5,10.3-9l-1.1-1.7c-2.3,2.9-6.2,6.2-9.3,7-.2,.1-.5,.1-.8,.1-2-7.3-5.9-10.2-11.6-8.7Zm2.8,30.6c-2.6,.7-3.7-.1-5-4.8-1.8-6.9-1-20.5,3.8-21.8,1.7-.5,2.7,.4,3.6,3.2-1.1,.8-1.6,2.3-1.1,4.3,.4,1.4,1.1,2.5,2.6,2.4,1.3,8.7-.5,15.8-3.9,16.7Zm30.9-27.6c1,.3,2,.3,2.9,.1,2-.5,2.9-3.4,2-6.9-.8-3-3.2-5.8-9.2-4.2-13.8,3.7-13.7,21.6-11.6,29.6s7.2,10,13.6,8.3c9-2.4,13-10.5,15.1-18l-2.3,.6c-2.3,4.9-4.7,8.9-10.1,10.3-3.3,.9-5.5,.2-6.8-4.6-2.1-7.6-1.2-21.4,3.5-22.7,1.3-.3,2.2,.5,2.6,2.1,.5,1.9,.5,3.6,.3,5.4Zm29.8-19.7l-10.2,14.2-1.6-26.1-9.7,4.1,3,50.3,9.8-2.6-1.1-18.3c1.5-2.1,2.8-3.5,4.3-3.9,1.8-.5,2.8,.7,3.3,2.7,.2,.9,.4,1.8,.4,2.7l.2,2.9c.1,1.3,.3,2.5,.6,3.8,1.4,5.1,5.1,7.2,10.7,5.7,1.8-.5,5.4-3.8,4.4-8.9-.6,.6-1.4,.9-2.3,1.1-2.1,.6-3-.5-3.3-1.9-.2-.8-.3-1.6-.3-2.3l-.2-3.7c0-.9-.2-1.8-.4-2.7-1.2-4.5-4.6-7.5-9.7-6.2-.7,.2-1.5,.5-2.2,.9l10.9-13.4-6.6,1.6ZM51.1,142.5l2.8,47.1,9.8-2.6-1.7-28c.7-.4,1.5-.7,2.2-.9,3-.8,4.5,.9,5.3,3.7,1.4,5.3,.1,14.8,1.4,19.4,.6,2.3,2.2,4.5,6.6,3.3,2.3-.7,4.4-1.7,6.4-3-1.8-.2-3.3-1.7-3.9-4.1-1.1-4.2,.1-12.8-1.4-18.6-.9-3.3-2.7-5.6-6.6-5.7,4-4.1,5.3-9.7,4.2-13.9-1.6-5.8-8-10-17.8-7.3-12.5,3.4-22,15.5-19.4,25.2,1.3,4.7,4.5,5.7,9,4.5-1.1-1.3-1.9-2.8-2.2-4.5-2.9-10.6,3.2-19.1,12.6-21.7,6.8-1.9,9.5,1.1,10.5,4.9,1.5,5.7-.7,13.5-6.3,15l-.5,.1-1-17.1-10,4.2Zm46.3-2.6c-14,3.8-14.1,21.7-11.9,29.8s7.5,9.9,13.8,8.2c8.3-2.2,13-12.3,10.5-25.6,4.7-2.2,8.6-5.5,10.3-9l-1.1-1.7c-2.3,2.9-6.2,6.2-9.3,7-.2,.1-.5,.1-.8,.1-1.9-7.4-5.8-10.4-11.5-8.8Zm2.8,30.6c-2.6,.7-3.7-.1-5-4.8-1.8-6.9-1-20.5,3.8-21.8,1.7-.5,2.7,.4,3.6,3.2-1.1,.8-1.6,2.3-1.1,4.3,.4,1.4,1.1,2.5,2.6,2.4,1.3,8.7-.5,15.8-3.9,16.7h0Zm13.2-48.1l2.2,37.1c.1,1.6,.3,3.2,.7,4.7,1.6,5.9,5.4,7.6,9.5,6.5,3.6-1,9.9-4.3,10.7-16.8l-2.9,.8c-.1,3.8-1.8,7.1-4.4,7.8-1.9,.5-3,.1-3.5-1.9-.2-.8-.3-1.5-.3-2.3l-2.4-40-9.6,4.1Zm27.6-9.1l-9.6,4.1,2.2,37.1c.1,1.6,.3,3.2,.7,4.7,1.6,6,5.5,7.7,9.6,6.6,3.6-1,6.5-4.3,5.5-9.4-.6,.5-1.3,.9-2.1,1-2.1,.6-3.1-.4-3.5-2.1-.2-.7-.3-1.4-.3-2.1l-2.5-39.9Z"/>
</svg>